<mxfile host="app.diagrams.net" agent="Mozilla/5.0 (Macintosh; Intel Mac OS X 10_15_7) AppleWebKit/537.36 (KHTML, like Gecko) Chrome/138.0.0.0 Safari/537.36" version="28.0.6">
  <diagram name="PÃ¡gina-1" id="fjIp7Wv-MVHPiVNxyXrS">
    <mxGraphModel dx="1244" dy="829" grid="1" gridSize="10" guides="1" tooltips="1" connect="1" arrows="1" fold="1" page="1" pageScale="1" pageWidth="827" pageHeight="1169" math="0" shadow="0">
      <root>
        <mxCell id="0" />
        <mxCell id="1" parent="0" />
        <mxCell id="ZQuY42AyU361a1SEq421-1" value="" style="rounded=1;whiteSpace=wrap;html=1;dashed=1;fontSize=11;" vertex="1" parent="1">
          <mxGeometry x="185" y="210" width="550" height="540" as="geometry" />
        </mxCell>
        <mxCell id="ZQuY42AyU361a1SEq421-2" value="&lt;font style=&quot;font-size: 10px;&quot;&gt;soat&lt;/font&gt;" style="aspect=fixed;sketch=0;html=1;dashed=0;whitespace=wrap;verticalLabelPosition=bottom;verticalAlign=top;fillColor=#2875E2;strokeColor=#ffffff;points=[[0.005,0.63,0],[0.1,0.2,0],[0.9,0.2,0],[0.5,0,0],[0.995,0.63,0],[0.72,0.99,0],[0.5,1,0],[0.28,0.99,0]];shape=mxgraph.kubernetes.icon2;kubernetesLabel=1;prIcon=ns;spacing=0;" vertex="1" parent="1">
          <mxGeometry x="206" y="230" width="41.67" height="40" as="geometry" />
        </mxCell>
        <mxCell id="ZQuY42AyU361a1SEq421-15" style="edgeStyle=orthogonalEdgeStyle;rounded=0;orthogonalLoop=1;jettySize=auto;html=1;entryX=0;entryY=0.5;entryDx=0;entryDy=0;dashed=1;startSize=4;endSize=4;" edge="1" parent="1" source="ZQuY42AyU361a1SEq421-3" target="ZQuY42AyU361a1SEq421-4">
          <mxGeometry relative="1" as="geometry" />
        </mxCell>
        <mxCell id="ZQuY42AyU361a1SEq421-16" value="&lt;font style=&quot;font-size: 10px;&quot;&gt;8080/tcp&lt;/font&gt;" style="edgeLabel;html=1;align=center;verticalAlign=middle;resizable=0;points=[];" vertex="1" connectable="0" parent="ZQuY42AyU361a1SEq421-15">
          <mxGeometry x="-0.2764" y="1" relative="1" as="geometry">
            <mxPoint x="1" y="-8" as="offset" />
          </mxGeometry>
        </mxCell>
        <mxCell id="ZQuY42AyU361a1SEq421-3" value="&lt;font style=&quot;font-size: 10px;&quot;&gt;soat-backend&lt;/font&gt;" style="aspect=fixed;sketch=0;html=1;dashed=0;whitespace=wrap;verticalLabelPosition=bottom;verticalAlign=top;fillColor=#2875E2;strokeColor=#ffffff;points=[[0.005,0.63,0],[0.1,0.2,0],[0.9,0.2,0],[0.5,0,0],[0.995,0.63,0],[0.72,0.99,0],[0.5,1,0],[0.28,0.99,0]];shape=mxgraph.kubernetes.icon2;kubernetesLabel=1;prIcon=svc;spacing=0;" vertex="1" parent="1">
          <mxGeometry x="216" y="446" width="50" height="48" as="geometry" />
        </mxCell>
        <mxCell id="ZQuY42AyU361a1SEq421-59" style="edgeStyle=orthogonalEdgeStyle;rounded=0;orthogonalLoop=1;jettySize=auto;html=1;exitX=0.299;exitY=0.996;exitDx=0;exitDy=0;exitPerimeter=0;dashed=1;endSize=4;startSize=4;" edge="1" parent="1" source="ZQuY42AyU361a1SEq421-4" target="ZQuY42AyU361a1SEq421-52">
          <mxGeometry relative="1" as="geometry" />
        </mxCell>
        <mxCell id="ZQuY42AyU361a1SEq421-4" value="" style="rounded=1;whiteSpace=wrap;html=1;fillColor=#e1d5e7;strokeColor=#9673a6;fillStyle=solid;strokeWidth=0;align=left;" vertex="1" parent="1">
          <mxGeometry x="326" y="360" width="90" height="220" as="geometry" />
        </mxCell>
        <mxCell id="ZQuY42AyU361a1SEq421-6" value="&lt;span style=&quot;text-align: left;&quot;&gt;&lt;font style=&quot;font-size: 9px;&quot;&gt;App: soat-backend&lt;/font&gt;&lt;/span&gt;" style="text;html=1;align=center;verticalAlign=middle;whiteSpace=wrap;rounded=0;" vertex="1" parent="1">
          <mxGeometry x="325" y="356" width="90" height="30" as="geometry" />
        </mxCell>
        <mxCell id="ZQuY42AyU361a1SEq421-7" value="" style="aspect=fixed;sketch=0;html=1;dashed=0;whitespace=wrap;verticalLabelPosition=bottom;verticalAlign=top;fillColor=#2875E2;strokeColor=#ffffff;points=[[0.005,0.63,0],[0.1,0.2,0],[0.9,0.2,0],[0.5,0,0],[0.995,0.63,0],[0.72,0.99,0],[0.5,1,0],[0.28,0.99,0]];shape=mxgraph.kubernetes.icon2;kubernetesLabel=1;prIcon=rs" vertex="1" parent="1">
          <mxGeometry x="346" y="386" width="50" height="48" as="geometry" />
        </mxCell>
        <mxCell id="ZQuY42AyU361a1SEq421-8" value="" style="aspect=fixed;sketch=0;html=1;dashed=0;whitespace=wrap;verticalLabelPosition=bottom;verticalAlign=top;fillColor=#2875E2;strokeColor=#ffffff;points=[[0.005,0.63,0],[0.1,0.2,0],[0.9,0.2,0],[0.5,0,0],[0.995,0.63,0],[0.72,0.99,0],[0.5,1,0],[0.28,0.99,0]];shape=mxgraph.kubernetes.icon2;kubernetesLabel=1;prIcon=pod" vertex="1" parent="1">
          <mxGeometry x="336" y="460" width="31.25" height="30" as="geometry" />
        </mxCell>
        <mxCell id="ZQuY42AyU361a1SEq421-10" value="" style="aspect=fixed;sketch=0;html=1;dashed=0;whitespace=wrap;verticalLabelPosition=bottom;verticalAlign=top;fillColor=#2875E2;strokeColor=#ffffff;points=[[0.005,0.63,0],[0.1,0.2,0],[0.9,0.2,0],[0.5,0,0],[0.995,0.63,0],[0.72,0.99,0],[0.5,1,0],[0.28,0.99,0]];shape=mxgraph.kubernetes.icon2;kubernetesLabel=1;prIcon=pod" vertex="1" parent="1">
          <mxGeometry x="376" y="460" width="31.25" height="30" as="geometry" />
        </mxCell>
        <mxCell id="ZQuY42AyU361a1SEq421-11" value="" style="aspect=fixed;sketch=0;html=1;dashed=0;whitespace=wrap;verticalLabelPosition=bottom;verticalAlign=top;fillColor=#2875E2;strokeColor=#ffffff;points=[[0.005,0.63,0],[0.1,0.2,0],[0.9,0.2,0],[0.5,0,0],[0.995,0.63,0],[0.72,0.99,0],[0.5,1,0],[0.28,0.99,0]];shape=mxgraph.kubernetes.icon2;kubernetesLabel=1;prIcon=pod" vertex="1" parent="1">
          <mxGeometry x="336" y="500" width="31.25" height="30" as="geometry" />
        </mxCell>
        <mxCell id="ZQuY42AyU361a1SEq421-12" value="" style="aspect=fixed;sketch=0;html=1;dashed=0;whitespace=wrap;verticalLabelPosition=bottom;verticalAlign=top;fillColor=#2875E2;strokeColor=#ffffff;points=[[0.005,0.63,0],[0.1,0.2,0],[0.9,0.2,0],[0.5,0,0],[0.995,0.63,0],[0.72,0.99,0],[0.5,1,0],[0.28,0.99,0]];shape=mxgraph.kubernetes.icon2;kubernetesLabel=1;prIcon=pod" vertex="1" parent="1">
          <mxGeometry x="376" y="500" width="31.25" height="30" as="geometry" />
        </mxCell>
        <mxCell id="ZQuY42AyU361a1SEq421-13" value="" style="aspect=fixed;sketch=0;html=1;dashed=0;whitespace=wrap;verticalLabelPosition=bottom;verticalAlign=top;fillColor=#2875E2;strokeColor=#ffffff;points=[[0.005,0.63,0],[0.1,0.2,0],[0.9,0.2,0],[0.5,0,0],[0.995,0.63,0],[0.72,0.99,0],[0.5,1,0],[0.28,0.99,0]];shape=mxgraph.kubernetes.icon2;kubernetesLabel=1;prIcon=pod" vertex="1" parent="1">
          <mxGeometry x="336" y="540" width="31.25" height="30" as="geometry" />
        </mxCell>
        <mxCell id="ZQuY42AyU361a1SEq421-14" value="" style="aspect=fixed;sketch=0;html=1;dashed=0;whitespace=wrap;verticalLabelPosition=bottom;verticalAlign=top;fillColor=#2875E2;strokeColor=#ffffff;points=[[0.005,0.63,0],[0.1,0.2,0],[0.9,0.2,0],[0.5,0,0],[0.995,0.63,0],[0.72,0.99,0],[0.5,1,0],[0.28,0.99,0]];shape=mxgraph.kubernetes.icon2;kubernetesLabel=1;prIcon=pod" vertex="1" parent="1">
          <mxGeometry x="376" y="540" width="31.25" height="30" as="geometry" />
        </mxCell>
        <mxCell id="ZQuY42AyU361a1SEq421-21" style="edgeStyle=orthogonalEdgeStyle;rounded=0;orthogonalLoop=1;jettySize=auto;html=1;startSize=4;endSize=4;dashed=1;entryX=0.25;entryY=0;entryDx=0;entryDy=0;" edge="1" parent="1" source="ZQuY42AyU361a1SEq421-17" target="ZQuY42AyU361a1SEq421-6">
          <mxGeometry relative="1" as="geometry" />
        </mxCell>
        <mxCell id="ZQuY42AyU361a1SEq421-23" value="&lt;span style=&quot;font-size: 10px;&quot;&gt;soat-backend&lt;/span&gt;" style="edgeLabel;html=1;align=center;verticalAlign=middle;resizable=0;points=[];" vertex="1" connectable="0" parent="ZQuY42AyU361a1SEq421-21">
          <mxGeometry x="-0.3015" y="-2" relative="1" as="geometry">
            <mxPoint x="1" y="-1" as="offset" />
          </mxGeometry>
        </mxCell>
        <mxCell id="ZQuY42AyU361a1SEq421-17" value="" style="aspect=fixed;sketch=0;html=1;dashed=0;whitespace=wrap;verticalLabelPosition=bottom;verticalAlign=top;fillColor=#2875E2;strokeColor=#ffffff;points=[[0.005,0.63,0],[0.1,0.2,0],[0.9,0.2,0],[0.5,0,0],[0.995,0.63,0],[0.72,0.99,0],[0.5,1,0],[0.28,0.99,0]];shape=mxgraph.kubernetes.icon2;kubernetesLabel=1;prIcon=deploy;fontSize=10;align=center;textShadow=0;fontColor=default;spacing=0;" vertex="1" parent="1">
          <mxGeometry x="322.25" y="270" width="50" height="48" as="geometry" />
        </mxCell>
        <mxCell id="ZQuY42AyU361a1SEq421-26" value="" style="rounded=1;whiteSpace=wrap;html=1;fillColor=#e1d5e7;strokeColor=#9673a6;fillStyle=solid;strokeWidth=0;align=left;" vertex="1" parent="1">
          <mxGeometry x="517" y="360" width="90" height="220" as="geometry" />
        </mxCell>
        <mxCell id="ZQuY42AyU361a1SEq421-27" value="&lt;span style=&quot;text-align: left;&quot;&gt;&lt;font style=&quot;font-size: 9px;&quot;&gt;App: soat-backend&lt;/font&gt;&lt;/span&gt;" style="text;html=1;align=center;verticalAlign=middle;whiteSpace=wrap;rounded=0;" vertex="1" parent="1">
          <mxGeometry x="516" y="356" width="90" height="30" as="geometry" />
        </mxCell>
        <mxCell id="ZQuY42AyU361a1SEq421-28" value="" style="aspect=fixed;sketch=0;html=1;dashed=0;whitespace=wrap;verticalLabelPosition=bottom;verticalAlign=top;fillColor=#2875E2;strokeColor=#ffffff;points=[[0.005,0.63,0],[0.1,0.2,0],[0.9,0.2,0],[0.5,0,0],[0.995,0.63,0],[0.72,0.99,0],[0.5,1,0],[0.28,0.99,0]];shape=mxgraph.kubernetes.icon2;kubernetesLabel=1;prIcon=rs" vertex="1" parent="1">
          <mxGeometry x="537" y="386" width="50" height="48" as="geometry" />
        </mxCell>
        <mxCell id="ZQuY42AyU361a1SEq421-35" style="edgeStyle=orthogonalEdgeStyle;rounded=0;orthogonalLoop=1;jettySize=auto;html=1;startSize=4;endSize=4;dashed=1;" edge="1" parent="1" source="ZQuY42AyU361a1SEq421-37" target="ZQuY42AyU361a1SEq421-27">
          <mxGeometry relative="1" as="geometry">
            <mxPoint x="561" y="360" as="targetPoint" />
          </mxGeometry>
        </mxCell>
        <mxCell id="ZQuY42AyU361a1SEq421-36" value="&lt;span style=&quot;font-size: 10px;&quot;&gt;soat-postgres&lt;/span&gt;" style="edgeLabel;html=1;align=center;verticalAlign=middle;resizable=0;points=[];" vertex="1" connectable="0" parent="ZQuY42AyU361a1SEq421-35">
          <mxGeometry x="-0.3015" y="-2" relative="1" as="geometry">
            <mxPoint as="offset" />
          </mxGeometry>
        </mxCell>
        <mxCell id="ZQuY42AyU361a1SEq421-37" value="" style="aspect=fixed;sketch=0;html=1;dashed=0;whitespace=wrap;verticalLabelPosition=bottom;verticalAlign=top;fillColor=#2875E2;strokeColor=#ffffff;points=[[0.005,0.63,0],[0.1,0.2,0],[0.9,0.2,0],[0.5,0,0],[0.995,0.63,0],[0.72,0.99,0],[0.5,1,0],[0.28,0.99,0]];shape=mxgraph.kubernetes.icon2;kubernetesLabel=1;prIcon=deploy;fontSize=10;align=center;textShadow=0;fontColor=default;spacing=0;" vertex="1" parent="1">
          <mxGeometry x="536" y="250" width="50" height="48" as="geometry" />
        </mxCell>
        <mxCell id="ZQuY42AyU361a1SEq421-40" value="&lt;font style=&quot;font-size: 10px;&quot;&gt;soat-backend&lt;/font&gt;" style="aspect=fixed;sketch=0;html=1;dashed=0;whitespace=wrap;verticalLabelPosition=bottom;verticalAlign=top;fillColor=#2875E2;strokeColor=#ffffff;points=[[0.005,0.63,0],[0.1,0.2,0],[0.9,0.2,0],[0.5,0,0],[0.995,0.63,0],[0.72,0.99,0],[0.5,1,0],[0.28,0.99,0]];shape=mxgraph.kubernetes.icon2;kubernetesLabel=1;prIcon=svc;spacing=0;" vertex="1" parent="1">
          <mxGeometry x="670" y="446" width="50" height="48" as="geometry" />
        </mxCell>
        <mxCell id="ZQuY42AyU361a1SEq421-41" style="edgeStyle=orthogonalEdgeStyle;rounded=0;orthogonalLoop=1;jettySize=auto;html=1;entryX=1;entryY=0.5;entryDx=0;entryDy=0;endSize=4;startSize=4;dashed=1;" edge="1" parent="1" source="ZQuY42AyU361a1SEq421-40" target="ZQuY42AyU361a1SEq421-26">
          <mxGeometry relative="1" as="geometry" />
        </mxCell>
        <mxCell id="ZQuY42AyU361a1SEq421-42" value="5432/tcp" style="edgeLabel;html=1;align=center;verticalAlign=middle;resizable=0;points=[];" vertex="1" connectable="0" parent="ZQuY42AyU361a1SEq421-41">
          <mxGeometry x="-0.0965" y="-2" relative="1" as="geometry">
            <mxPoint y="-8" as="offset" />
          </mxGeometry>
        </mxCell>
        <mxCell id="ZQuY42AyU361a1SEq421-45" value="" style="aspect=fixed;sketch=0;html=1;dashed=0;whitespace=wrap;verticalLabelPosition=bottom;verticalAlign=top;fillColor=#2875E2;strokeColor=#ffffff;points=[[0.005,0.63,0],[0.1,0.2,0],[0.9,0.2,0],[0.5,0,0],[0.995,0.63,0],[0.72,0.99,0],[0.5,1,0],[0.28,0.99,0]];shape=mxgraph.kubernetes.icon2;kubernetesLabel=1;prIcon=pod" vertex="1" parent="1">
          <mxGeometry x="537" y="500" width="50" height="48" as="geometry" />
        </mxCell>
        <mxCell id="ZQuY42AyU361a1SEq421-46" value="" style="aspect=fixed;sketch=0;html=1;dashed=0;whitespace=wrap;verticalLabelPosition=bottom;verticalAlign=top;fillColor=#2875E2;strokeColor=#ffffff;points=[[0.005,0.63,0],[0.1,0.2,0],[0.9,0.2,0],[0.5,0,0],[0.995,0.63,0],[0.72,0.99,0],[0.5,1,0],[0.28,0.99,0]];shape=mxgraph.kubernetes.icon2;kubernetesLabel=1;prIcon=hpa" vertex="1" parent="1">
          <mxGeometry x="437" y="365" width="50" height="48" as="geometry" />
        </mxCell>
        <mxCell id="ZQuY42AyU361a1SEq421-48" style="edgeStyle=orthogonalEdgeStyle;rounded=0;orthogonalLoop=1;jettySize=auto;html=1;entryX=0.995;entryY=0.63;entryDx=0;entryDy=0;entryPerimeter=0;endSize=4;startSize=4;dashed=1;exitX=0.5;exitY=0;exitDx=0;exitDy=0;exitPerimeter=0;" edge="1" parent="1" source="ZQuY42AyU361a1SEq421-46" target="ZQuY42AyU361a1SEq421-17">
          <mxGeometry relative="1" as="geometry" />
        </mxCell>
        <mxCell id="ZQuY42AyU361a1SEq421-49" value="&lt;font style=&quot;font-size: 10px;&quot;&gt;soat-backend-hpa&lt;/font&gt;" style="edgeLabel;html=1;align=center;verticalAlign=middle;resizable=0;points=[];" vertex="1" connectable="0" parent="ZQuY42AyU361a1SEq421-48">
          <mxGeometry x="0.0501" y="-2" relative="1" as="geometry">
            <mxPoint x="16" y="122" as="offset" />
          </mxGeometry>
        </mxCell>
        <mxCell id="ZQuY42AyU361a1SEq421-50" value="Ingress" style="aspect=fixed;sketch=0;html=1;dashed=0;whitespace=wrap;verticalLabelPosition=bottom;verticalAlign=top;fillColor=#2875E2;strokeColor=#ffffff;points=[[0.005,0.63,0],[0.1,0.2,0],[0.9,0.2,0],[0.5,0,0],[0.995,0.63,0],[0.72,0.99,0],[0.5,1,0],[0.28,0.99,0]];shape=mxgraph.kubernetes.icon2;kubernetesLabel=1;prIcon=ing;fontSize=10;" vertex="1" parent="1">
          <mxGeometry x="66" y="308" width="50" height="48" as="geometry" />
        </mxCell>
        <mxCell id="ZQuY42AyU361a1SEq421-51" style="edgeStyle=orthogonalEdgeStyle;rounded=0;orthogonalLoop=1;jettySize=auto;html=1;entryX=0.001;entryY=0.291;entryDx=0;entryDy=0;entryPerimeter=0;" edge="1" parent="1" source="ZQuY42AyU361a1SEq421-50" target="ZQuY42AyU361a1SEq421-1">
          <mxGeometry relative="1" as="geometry" />
        </mxCell>
        <mxCell id="ZQuY42AyU361a1SEq421-52" value="soat-backend-secret" style="aspect=fixed;sketch=0;html=1;dashed=0;whitespace=wrap;verticalLabelPosition=bottom;verticalAlign=top;fillColor=#2875E2;strokeColor=#ffffff;points=[[0.005,0.63,0],[0.1,0.2,0],[0.9,0.2,0],[0.5,0,0],[0.995,0.63,0],[0.72,0.99,0],[0.5,1,0],[0.28,0.99,0]];shape=mxgraph.kubernetes.icon2;kubernetesLabel=1;prIcon=secret;fontSize=10;" vertex="1" parent="1">
          <mxGeometry x="303" y="616" width="50" height="48" as="geometry" />
        </mxCell>
        <mxCell id="ZQuY42AyU361a1SEq421-53" value="&lt;font style=&quot;font-size: 10px;&quot;&gt;soat-postgres-pvc&lt;/font&gt;" style="aspect=fixed;sketch=0;html=1;dashed=0;whitespace=wrap;verticalLabelPosition=bottom;verticalAlign=top;fillColor=#2875E2;strokeColor=#ffffff;points=[[0.005,0.63,0],[0.1,0.2,0],[0.9,0.2,0],[0.5,0,0],[0.995,0.63,0],[0.72,0.99,0],[0.5,1,0],[0.28,0.99,0]];shape=mxgraph.kubernetes.icon2;kubernetesLabel=1;prIcon=pvc" vertex="1" parent="1">
          <mxGeometry x="437" y="500" width="50" height="48" as="geometry" />
        </mxCell>
        <mxCell id="ZQuY42AyU361a1SEq421-55" style="edgeStyle=orthogonalEdgeStyle;rounded=0;orthogonalLoop=1;jettySize=auto;html=1;startSize=4;endSize=4;dashed=1;" edge="1" parent="1" source="ZQuY42AyU361a1SEq421-45" target="ZQuY42AyU361a1SEq421-53">
          <mxGeometry relative="1" as="geometry" />
        </mxCell>
        <mxCell id="ZQuY42AyU361a1SEq421-58" value="soat-backend-config" style="aspect=fixed;sketch=0;html=1;dashed=0;whitespace=wrap;verticalLabelPosition=bottom;verticalAlign=top;fillColor=#2875E2;strokeColor=#ffffff;points=[[0.005,0.63,0],[0.1,0.2,0],[0.9,0.2,0],[0.5,0,0],[0.995,0.63,0],[0.72,0.99,0],[0.5,1,0],[0.28,0.99,0]];shape=mxgraph.kubernetes.icon2;kubernetesLabel=1;prIcon=cm;fontSize=10;" vertex="1" parent="1">
          <mxGeometry x="387" y="640" width="50" height="48" as="geometry" />
        </mxCell>
        <mxCell id="ZQuY42AyU361a1SEq421-60" value="soat-postgres-secret" style="aspect=fixed;sketch=0;html=1;dashed=0;whitespace=wrap;verticalLabelPosition=bottom;verticalAlign=top;fillColor=#2875E2;strokeColor=#ffffff;points=[[0.005,0.63,0],[0.1,0.2,0],[0.9,0.2,0],[0.5,0,0],[0.995,0.63,0],[0.72,0.99,0],[0.5,1,0],[0.28,0.99,0]];shape=mxgraph.kubernetes.icon2;kubernetesLabel=1;prIcon=secret;fontSize=10;" vertex="1" parent="1">
          <mxGeometry x="606" y="640" width="50" height="48" as="geometry" />
        </mxCell>
        <mxCell id="ZQuY42AyU361a1SEq421-61" style="edgeStyle=orthogonalEdgeStyle;rounded=0;orthogonalLoop=1;jettySize=auto;html=1;entryX=0.5;entryY=0;entryDx=0;entryDy=0;entryPerimeter=0;dashed=1;startSize=4;endSize=4;exitX=0.701;exitY=0.994;exitDx=0;exitDy=0;exitPerimeter=0;" edge="1" parent="1" source="ZQuY42AyU361a1SEq421-26" target="ZQuY42AyU361a1SEq421-60">
          <mxGeometry relative="1" as="geometry" />
        </mxCell>
        <mxCell id="ZQuY42AyU361a1SEq421-62" style="edgeStyle=orthogonalEdgeStyle;rounded=0;orthogonalLoop=1;jettySize=auto;html=1;entryX=0.5;entryY=0;entryDx=0;entryDy=0;entryPerimeter=0;dashed=1;startSize=4;endSize=4;exitX=0.696;exitY=0.996;exitDx=0;exitDy=0;exitPerimeter=0;" edge="1" parent="1" source="ZQuY42AyU361a1SEq421-4" target="ZQuY42AyU361a1SEq421-58">
          <mxGeometry relative="1" as="geometry" />
        </mxCell>
        <mxCell id="ZQuY42AyU361a1SEq421-63" value="soat-postgres-config" style="aspect=fixed;sketch=0;html=1;dashed=0;whitespace=wrap;verticalLabelPosition=bottom;verticalAlign=top;fillColor=#2875E2;strokeColor=#ffffff;points=[[0.005,0.63,0],[0.1,0.2,0],[0.9,0.2,0],[0.5,0,0],[0.995,0.63,0],[0.72,0.99,0],[0.5,1,0],[0.28,0.99,0]];shape=mxgraph.kubernetes.icon2;kubernetesLabel=1;prIcon=cm;fontSize=10;" vertex="1" parent="1">
          <mxGeometry x="496" y="616" width="50" height="48" as="geometry" />
        </mxCell>
        <mxCell id="ZQuY42AyU361a1SEq421-64" style="edgeStyle=orthogonalEdgeStyle;rounded=0;orthogonalLoop=1;jettySize=auto;html=1;entryX=0.5;entryY=0;entryDx=0;entryDy=0;entryPerimeter=0;dashed=1;startSize=4;endSize=4;exitX=0.302;exitY=0.991;exitDx=0;exitDy=0;exitPerimeter=0;" edge="1" parent="1" source="ZQuY42AyU361a1SEq421-26" target="ZQuY42AyU361a1SEq421-63">
          <mxGeometry relative="1" as="geometry" />
        </mxCell>
        <mxCell id="ZQuY42AyU361a1SEq421-67" value="Load Balancer" style="image;sketch=0;aspect=fixed;html=1;points=[];align=center;fontSize=10;image=img/lib/mscae/Kubernetes.svg;" vertex="1" parent="1">
          <mxGeometry x="66" y="413" width="50" height="48" as="geometry" />
        </mxCell>
        <mxCell id="ZQuY42AyU361a1SEq421-68" style="edgeStyle=orthogonalEdgeStyle;rounded=0;orthogonalLoop=1;jettySize=auto;html=1;entryX=-0.002;entryY=0.421;entryDx=0;entryDy=0;entryPerimeter=0;" edge="1" parent="1" source="ZQuY42AyU361a1SEq421-67" target="ZQuY42AyU361a1SEq421-1">
          <mxGeometry relative="1" as="geometry" />
        </mxCell>
        <mxCell id="ZQuY42AyU361a1SEq421-69" value="Port-forwarding" style="aspect=fixed;sketch=0;html=1;dashed=0;whitespace=wrap;verticalLabelPosition=bottom;verticalAlign=top;fillColor=#2875E2;strokeColor=#ffffff;points=[[0.005,0.63,0],[0.1,0.2,0],[0.9,0.2,0],[0.5,0,0],[0.995,0.63,0],[0.72,0.99,0],[0.5,1,0],[0.28,0.99,0]];shape=mxgraph.kubernetes.icon2;prIcon=k_proxy" vertex="1" parent="1">
          <mxGeometry x="66" y="510" width="50" height="48" as="geometry" />
        </mxCell>
        <mxCell id="ZQuY42AyU361a1SEq421-70" style="edgeStyle=orthogonalEdgeStyle;rounded=0;orthogonalLoop=1;jettySize=auto;html=1;entryX=-0.002;entryY=0.599;entryDx=0;entryDy=0;entryPerimeter=0;" edge="1" parent="1" source="ZQuY42AyU361a1SEq421-69" target="ZQuY42AyU361a1SEq421-1">
          <mxGeometry relative="1" as="geometry" />
        </mxCell>
      </root>
    </mxGraphModel>
  </diagram>
</mxfile>
